<?xml version="1.0" encoding="UTF-8"?>
<!DOCTYPE svg PUBLIC "-//W3C//DTD SVG 1.1//EN" "http://www.w3.org/Graphics/SVG/1.1/DTD/svg11.dtd">
<svg xmlns="http://www.w3.org/2000/svg" version="1.1" width="512px" height="512px" style="shape-rendering:geometricPrecision; text-rendering:geometricPrecision; image-rendering:optimizeQuality; fill-rule:evenodd; clip-rule:evenodd" xmlns:xlink="http://www.w3.org/1999/xlink">
<g><path style="opacity:0.998" fill="#ee5f34" d="M 249.5,5.5 C 286.5,42.8333 323.5,80.1667 360.5,117.5C 348.833,117.5 337.167,117.5 325.5,117.5C 289.5,80.8333 253.167,44.5 216.5,8.5C 227.243,6.26022 238.243,5.26022 249.5,5.5 Z"/></g>
<g><path style="opacity:0.997" fill="#ef642e" d="M 249.5,5.5 C 258.839,5.33355 268.173,5.50021 277.5,6C 283.384,6.3152 289.051,7.14854 294.5,8.5C 331.5,45.8333 368.5,83.1667 405.5,120.5C 402.821,119.774 400.154,118.941 397.5,118C 385.171,117.5 372.838,117.333 360.5,117.5C 323.5,80.1667 286.5,42.8333 249.5,5.5 Z"/></g>
<g><path style="opacity:0.996" fill="#f06829" d="M 294.5,8.5 C 304.983,9.73 315.317,11.73 325.5,14.5C 381.784,72.4511 438.784,129.784 496.5,186.5C 499.397,196.316 501.397,206.316 502.5,216.5C 473.368,187.868 444.368,159.035 415.5,130C 414.906,129.536 414.239,129.369 413.5,129.5C 411.518,125.854 408.851,122.854 405.5,120.5C 368.5,83.1667 331.5,45.8333 294.5,8.5 Z"/></g>
<g><path style="opacity:0.998" fill="#ee5a39" d="M 216.5,8.5 C 253.167,44.5 289.5,80.8333 325.5,117.5C 312.5,117.5 299.5,117.5 286.5,117.5C 252.833,83.1667 218.833,49.1667 184.5,15.5C 194.785,11.932 205.452,9.59863 216.5,8.5 Z"/></g>
<g><path style="opacity:0.993" fill="#f16b26" d="M 325.5,14.5 C 335.654,17.7731 345.654,21.4398 355.5,25.5C 397.582,69.0831 440.249,112.25 483.5,155C 484.094,155.464 484.761,155.631 485.5,155.5C 489.756,165.601 493.423,175.935 496.5,186.5C 438.784,129.784 381.784,72.4511 325.5,14.5 Z"/></g>
<g><path style="opacity:0.999" fill="#ed573d" d="M 184.5,15.5 C 218.833,49.1667 252.833,83.1667 286.5,117.5C 280.5,117.5 274.5,117.5 268.5,117.5C 236.868,85.368 205.035,53.368 173,21.5C 172.536,20.9056 172.369,20.2389 172.5,19.5C 176.216,17.5947 180.216,16.2613 184.5,15.5 Z"/></g>
<g><path style="opacity:0.998" fill="#ec5341" d="M 172.5,19.5 C 172.369,20.2389 172.536,20.9056 173,21.5C 205.035,53.368 236.868,85.368 268.5,117.5C 254.5,117.5 240.5,117.5 226.5,117.5C 198.5,89.1667 170.5,60.8333 142.5,32.5C 151.741,26.634 161.741,22.3007 172.5,19.5 Z"/></g>
<g><path style="opacity:0.976" fill="#f16e23" d="M 355.5,25.5 C 415.167,52.5 458.5,95.8333 485.5,155.5C 484.761,155.631 484.094,155.464 483.5,155C 440.249,112.25 397.582,69.0831 355.5,25.5 Z"/></g>
<g><path style="opacity:0.997" fill="#eb4e47" d="M 142.5,32.5 C 170.5,60.8333 198.5,89.1667 226.5,117.5C 212.5,117.5 198.5,117.5 184.5,117.5C 161.783,93.7826 138.45,70.7826 114.5,48.5C 123.174,42.1585 132.507,36.8252 142.5,32.5 Z"/></g>
<g><path style="opacity:0.996" fill="#ea484d" d="M 114.5,48.5 C 138.45,70.7826 161.783,93.7826 184.5,117.5C 167.833,117.5 151.167,117.5 134.5,117.5C 119.116,101.115 103.116,85.448 86.5,70.5C 95.0682,62.2131 104.402,54.8798 114.5,48.5 Z"/></g>
<g><path style="opacity:0.995" fill="#e94254" d="M 86.5,70.5 C 103.116,85.448 119.116,101.115 134.5,117.5C 127.159,117.334 119.826,117.5 112.5,118C 108.025,119.402 104.025,121.569 100.5,124.5C 88.7796,113.781 77.7796,102.448 67.5,90.5C 73.1305,83.2018 79.4639,76.5352 86.5,70.5 Z"/></g>
<g><path style="opacity:0.997" fill="#e33e59" d="M 67.5,90.5 C 77.7796,102.448 88.7796,113.781 100.5,124.5C 95.6862,130.617 93.6862,137.617 94.5,145.5C 81.1667,132.5 67.8333,119.5 54.5,106.5C 58.106,100.562 62.4393,95.2288 67.5,90.5 Z"/></g>
<g><path style="opacity:0.997" fill="#dd3c5c" d="M 54.5,106.5 C 67.8333,119.5 81.1667,132.5 94.5,145.5C 94.5,152.5 94.5,159.5 94.5,166.5C 77.7814,150.782 61.7814,134.449 46.5,117.5C 48.9341,113.618 51.6007,109.952 54.5,106.5 Z"/></g>
<g><path style="opacity:0.994" fill="#d73a5f" d="M 46.5,117.5 C 61.7814,134.449 77.7814,150.782 94.5,166.5C 94.5,173.833 94.5,181.167 94.5,188.5C 75.5,169.833 56.5,151.167 37.5,132.5C 40.1101,127.233 43.1101,122.233 46.5,117.5 Z"/></g>
<g><path style="opacity:1" fill="#fefdfd" d="M 134.5,117.5 C 151.167,117.5 167.833,117.5 184.5,117.5C 198.5,117.5 212.5,117.5 226.5,117.5C 240.5,117.5 254.5,117.5 268.5,117.5C 274.5,117.5 280.5,117.5 286.5,117.5C 299.5,117.5 312.5,117.5 325.5,117.5C 337.167,117.5 348.833,117.5 360.5,117.5C 372.838,117.333 385.171,117.5 397.5,118C 400.154,118.941 402.821,119.774 405.5,120.5C 408.851,122.854 411.518,125.854 413.5,129.5C 414.594,131.359 415.427,133.359 416,135.5C 416.5,148.162 416.667,160.829 416.5,173.5C 416.5,185.167 416.5,196.833 416.5,208.5C 416.5,221.5 416.5,234.5 416.5,247.5C 416.5,253.5 416.5,259.5 416.5,265.5C 416.666,273.507 416.5,281.507 416,289.5C 415.226,294.335 413.392,298.668 410.5,302.5C 406.346,306.556 401.346,308.889 395.5,309.5C 302.167,309.5 208.833,309.5 115.5,309.5C 103.936,307.77 97.1026,301.104 95,289.5C 94.5012,285.514 94.3345,281.514 94.5,277.5C 94.5,270.5 94.5,263.5 94.5,256.5C 94.5,249.167 94.5,241.833 94.5,234.5C 94.5,226.167 94.5,217.833 94.5,209.5C 94.5,202.5 94.5,195.5 94.5,188.5C 94.5,181.167 94.5,173.833 94.5,166.5C 94.5,159.5 94.5,152.5 94.5,145.5C 93.6862,137.617 95.6862,130.617 100.5,124.5C 104.025,121.569 108.025,119.402 112.5,118C 119.826,117.5 127.159,117.334 134.5,117.5 Z"/></g>
<g><path style="opacity:0.996" fill="#ef642e" d="M 413.5,129.5 C 414.239,129.369 414.906,129.536 415.5,130C 444.368,159.035 473.368,187.868 502.5,216.5C 503.797,221.62 504.631,226.954 505,232.5C 505.5,242.161 505.666,251.828 505.5,261.5C 475.833,232.167 446.167,202.833 416.5,173.5C 416.667,160.829 416.5,148.162 416,135.5C 415.427,133.359 414.594,131.359 413.5,129.5 Z"/></g>
<g><path style="opacity:0.997" fill="#d13862" d="M 37.5,132.5 C 56.5,151.167 75.5,169.833 94.5,188.5C 94.5,195.5 94.5,202.5 94.5,209.5C 73.1667,188.5 51.8333,167.5 30.5,146.5C 32.3255,141.516 34.6589,136.849 37.5,132.5 Z"/></g>
<g><path style="opacity:1" fill="#e94254" d="M 113.5,134.5 C 126.5,134.5 139.5,134.5 152.5,134.5C 167.551,150.552 183.218,165.885 199.5,180.5C 192.492,187.508 185.158,194.174 177.5,200.5C 155.585,180.086 134.085,159.086 113,137.5C 112.536,136.906 112.369,136.239 112.5,135.5C 112.5,134.833 112.833,134.5 113.5,134.5 Z"/></g>
<g><path style="opacity:1" fill="#ea484e" d="M 152.5,134.5 C 166.837,134.333 181.171,134.5 195.5,135C 215.418,155.42 235.751,175.253 256.5,194.5C 250.733,203.048 244.733,211.381 238.5,219.5C 229.254,211.759 220.421,203.426 212,194.5C 211.536,193.906 211.369,193.239 211.5,192.5C 213.833,189.997 215.999,187.331 218,184.5C 218.964,178.609 216.464,174.942 210.5,173.5C 206.572,175.429 202.905,177.762 199.5,180.5C 183.218,165.885 167.551,150.552 152.5,134.5 Z"/></g>
<g><path style="opacity:1" fill="#ec514a" d="M 113.5,134.5 C 207.833,133.167 302.167,133.167 396.5,134.5C 378.833,134.5 361.167,134.5 343.5,134.5C 330.5,134.5 317.5,134.5 304.5,134.5C 298.5,134.5 292.5,134.5 286.5,134.5C 272.496,134.333 258.496,134.5 244.5,135C 260.085,151.088 276.085,166.588 292.5,181.5C 292.491,183.308 292.991,184.975 294,186.5C 302.5,194.333 311,202.167 319.5,210C 312.295,216.708 304.962,223.208 297.5,229.5C 288.111,221.113 279.445,212.113 271.5,202.5C 274.084,198.067 276.918,193.734 280,189.5C 281.663,180.833 278.163,177 269.5,178C 264.541,183.112 260.207,188.612 256.5,194.5C 235.751,175.253 215.418,155.42 195.5,135C 181.171,134.5 166.837,134.333 152.5,134.5C 139.5,134.5 126.5,134.5 113.5,134.5 Z"/></g>
<g><path style="opacity:1" fill="#ed5643" d="M 286.5,134.5 C 323.799,172.299 361.299,209.965 399,247.5C 399.499,241.509 399.666,235.509 399.5,229.5C 399.5,216.5 399.5,203.5 399.5,190.5C 399.5,172.833 399.5,155.167 399.5,137.5C 400.499,186.997 400.832,236.664 400.5,286.5C 398.833,286.5 397.167,286.5 395.5,286.5C 374.167,264.833 352.833,243.167 331.5,221.5C 333.771,219.734 335.937,217.734 338,215.5C 339.457,212.634 339.79,209.634 339,206.5C 327.8,195.631 316.3,185.131 304.5,175C 298.138,172.682 294.138,174.849 292.5,181.5C 276.085,166.588 260.085,151.088 244.5,135C 258.496,134.5 272.496,134.333 286.5,134.5 Z"/></g>
<g><path style="opacity:1" fill="#ed573d" d="M 286.5,134.5 C 292.5,134.5 298.5,134.5 304.5,134.5C 335.833,166.5 367.5,198.167 399.5,229.5C 399.666,235.509 399.499,241.509 399,247.5C 361.299,209.965 323.799,172.299 286.5,134.5 Z"/></g>
<g><path style="opacity:1" fill="#ee5a39" d="M 304.5,134.5 C 317.5,134.5 330.5,134.5 343.5,134.5C 361.833,153.5 380.5,172.167 399.5,190.5C 399.5,203.5 399.5,216.5 399.5,229.5C 367.5,198.167 335.833,166.5 304.5,134.5 Z"/></g>
<g><path style="opacity:1" fill="#ee5f33" d="M 343.5,134.5 C 361.167,134.5 378.833,134.5 396.5,134.5C 398.5,134.5 399.5,135.5 399.5,137.5C 399.5,155.167 399.5,172.833 399.5,190.5C 380.5,172.167 361.833,153.5 343.5,134.5 Z"/></g>
<g><path style="opacity:0.995" fill="#cb3666" d="M 30.5,146.5 C 51.8333,167.5 73.1667,188.5 94.5,209.5C 94.5,217.833 94.5,226.167 94.5,234.5C 70.1396,210.806 46.1396,186.806 22.5,162.5C 24.6566,156.854 27.3232,151.52 30.5,146.5 Z"/></g>
<g><path style="opacity:1" fill="#e33f5a" d="M 112.5,135.5 C 112.369,136.239 112.536,136.906 113,137.5C 134.085,159.086 155.585,180.086 177.5,200.5C 175.873,202.63 174.04,204.63 172,206.5C 171.21,209.634 171.543,212.634 173,215.5C 184.5,225.667 196,235.833 207.5,246C 212.374,247.224 216.041,245.724 218.5,241.5C 218.369,242.239 218.536,242.906 219,243.5C 233.369,257.701 247.535,272.035 261.5,286.5C 252.5,286.5 243.5,286.5 234.5,286.5C 193.833,245.167 152.833,204.167 111.5,163.5C 111.5,154.833 111.5,146.167 111.5,137.5C 111.328,136.508 111.662,135.842 112.5,135.5 Z"/></g>
<g><path style="opacity:0.997" fill="#c43469" d="M 22.5,162.5 C 46.1396,186.806 70.1396,210.806 94.5,234.5C 94.5,241.833 94.5,249.167 94.5,256.5C 68.868,231.368 43.368,206.035 18,180.5C 17.6174,181.056 17.1174,181.389 16.5,181.5C 18.0999,175.034 20.0999,168.701 22.5,162.5 Z"/></g>
<g><path style="opacity:1" fill="#dd3c5c" d="M 111.5,163.5 C 152.833,204.167 193.833,245.167 234.5,286.5C 227.5,286.5 220.5,286.5 213.5,286.5C 179.833,252.167 145.833,218.167 111.5,184.5C 111.5,177.5 111.5,170.5 111.5,163.5 Z"/></g>
<g><path style="opacity:0.997" fill="#ee5f33" d="M 416.5,173.5 C 446.167,202.833 475.833,232.167 505.5,261.5C 505.653,271.564 504.987,281.564 503.5,291.5C 502.778,291.918 502.278,292.584 502,293.5C 473.632,264.965 445.132,236.632 416.5,208.5C 416.5,196.833 416.5,185.167 416.5,173.5 Z"/></g>
<g><path style="opacity:1" fill="#fefbfc" d="M 211.5,192.5 C 204.705,198.125 198.038,203.958 191.5,210C 200,217.833 208.5,225.667 217,233.5C 218.252,236.014 218.752,238.68 218.5,241.5C 216.041,245.724 212.374,247.224 207.5,246C 196,235.833 184.5,225.667 173,215.5C 171.543,212.634 171.21,209.634 172,206.5C 174.04,204.63 175.873,202.63 177.5,200.5C 185.158,194.174 192.492,187.508 199.5,180.5C 202.905,177.762 206.572,175.429 210.5,173.5C 216.464,174.942 218.964,178.609 218,184.5C 215.999,187.331 213.833,189.997 211.5,192.5 Z"/></g>
<g><path style="opacity:1" fill="#fefbfb" d="M 331.5,221.5 C 323.842,227.826 316.508,234.492 309.5,241.5C 307.66,243.168 305.66,244.668 303.5,246C 293.952,246.747 290.785,242.58 294,233.5C 295.376,232.295 296.542,230.962 297.5,229.5C 304.962,223.208 312.295,216.708 319.5,210C 311,202.167 302.5,194.333 294,186.5C 292.991,184.975 292.491,183.308 292.5,181.5C 294.138,174.849 298.138,172.682 304.5,175C 316.3,185.131 327.8,195.631 339,206.5C 339.79,209.634 339.457,212.634 338,215.5C 335.937,217.734 333.771,219.734 331.5,221.5 Z"/></g>
<g><path style="opacity:1" fill="#fefbfb" d="M 271.5,202.5 C 264.145,211.863 257.145,221.53 250.5,231.5C 248.31,234.688 245.976,237.855 243.5,241C 234.457,244.292 230.29,241.126 231,231.5C 233.751,227.598 236.251,223.598 238.5,219.5C 244.733,211.381 250.733,203.048 256.5,194.5C 260.207,188.612 264.541,183.112 269.5,178C 278.163,177 281.663,180.833 280,189.5C 276.918,193.734 274.084,198.067 271.5,202.5 Z"/></g>
<g><path style="opacity:0.998" fill="#be326c" d="M 94.5,256.5 C 94.5,263.5 94.5,270.5 94.5,277.5C 67.1667,250.5 39.8333,223.5 12.5,196.5C 13.0756,191.191 14.409,186.191 16.5,181.5C 17.1174,181.389 17.6174,181.056 18,180.5C 43.368,206.035 68.868,231.368 94.5,256.5 Z"/></g>
<g><path style="opacity:1" fill="#d73a5f" d="M 111.5,184.5 C 145.833,218.167 179.833,252.167 213.5,286.5C 206.167,286.5 198.833,286.5 191.5,286.5C 165.167,259.5 138.5,232.833 111.5,206.5C 111.5,199.167 111.5,191.833 111.5,184.5 Z"/></g>
<g><path style="opacity:1" fill="#e94354" d="M 211.5,192.5 C 211.369,193.239 211.536,193.906 212,194.5C 220.421,203.426 229.254,211.759 238.5,219.5C 236.251,223.598 233.751,227.598 231,231.5C 230.29,241.126 234.457,244.292 243.5,241C 245.976,237.855 248.31,234.688 250.5,231.5C 250.369,232.239 250.536,232.906 251,233.5C 268.702,251.035 286.202,268.701 303.5,286.5C 289.5,286.5 275.5,286.5 261.5,286.5C 247.535,272.035 233.369,257.701 219,243.5C 218.536,242.906 218.369,242.239 218.5,241.5C 218.752,238.68 218.252,236.014 217,233.5C 208.5,225.667 200,217.833 191.5,210C 198.038,203.958 204.705,198.125 211.5,192.5 Z"/></g>
<g><path style="opacity:1" fill="#d13862" d="M 111.5,206.5 C 138.5,232.833 165.167,259.5 191.5,286.5C 184.5,286.5 177.5,286.5 170.5,286.5C 151.167,266.5 131.5,246.833 111.5,227.5C 111.5,220.5 111.5,213.5 111.5,206.5 Z"/></g>
<g><path style="opacity:1" fill="#ea484e" d="M 271.5,202.5 C 279.445,212.113 288.111,221.113 297.5,229.5C 296.542,230.962 295.376,232.295 294,233.5C 290.785,242.58 293.952,246.747 303.5,246C 305.66,244.668 307.66,243.168 309.5,241.5C 324.167,256.5 338.833,271.5 353.5,286.5C 336.833,286.5 320.167,286.5 303.5,286.5C 286.202,268.701 268.702,251.035 251,233.5C 250.536,232.906 250.369,232.239 250.5,231.5C 257.145,221.53 264.145,211.863 271.5,202.5 Z"/></g>
<g><path style="opacity:0.998" fill="#b22f72" d="M 8.5,214.5 C 60.451,264.784 111.784,315.784 162.5,367.5C 162.5,367.833 162.5,368.167 162.5,368.5C 156.043,369.956 152.377,373.956 151.5,380.5C 103.201,332.701 55.0346,284.701 7,236.5C 6.50999,235.207 6.34332,233.873 6.5,232.5C 6.51335,226.41 7.18002,220.41 8.5,214.5 Z"/></g>
<g><path style="opacity:1" fill="#eb4e47" d="M 331.5,221.5 C 352.833,243.167 374.167,264.833 395.5,286.5C 381.5,286.5 367.5,286.5 353.5,286.5C 338.833,271.5 324.167,256.5 309.5,241.5C 316.508,234.492 323.842,227.826 331.5,221.5 Z"/></g>
<g><path style="opacity:0.997" fill="#ee5a39" d="M 416.5,208.5 C 445.132,236.632 473.632,264.965 502,293.5C 502.278,292.584 502.778,291.918 503.5,291.5C 501.835,303.51 499.168,315.176 495.5,326.5C 469.5,299.833 443.167,273.5 416.5,247.5C 416.5,234.5 416.5,221.5 416.5,208.5 Z"/></g>
<g><path style="opacity:1" fill="#cb3666" d="M 111.5,227.5 C 131.5,246.833 151.167,266.5 170.5,286.5C 162.167,286.5 153.833,286.5 145.5,286.5C 134.535,275.035 123.369,263.702 112,252.5C 111.5,244.173 111.334,235.84 111.5,227.5 Z"/></g>
<g><path style="opacity:0.997" fill="#ac2d75" d="M 6.5,232.5 C 6.34332,233.873 6.50999,235.207 7,236.5C 55.0346,284.701 103.201,332.701 151.5,380.5C 152.181,388.515 156.515,392.848 164.5,393.5C 200.965,430.465 237.632,467.299 274.5,504C 275.448,504.483 276.448,504.649 277.5,504.5C 272.36,505.488 267.026,505.821 261.5,505.5C 176.5,419.833 91.1667,334.5 5.5,249.5C 5.1778,243.642 5.51114,237.975 6.5,232.5 Z"/></g>
<g><path style="opacity:1" fill="#c94371" d="M 111.5,137.5 C 111.5,146.167 111.5,154.833 111.5,163.5C 111.5,170.5 111.5,177.5 111.5,184.5C 111.5,191.833 111.5,199.167 111.5,206.5C 111.5,213.5 111.5,220.5 111.5,227.5C 111.334,235.84 111.5,244.173 112,252.5C 123.369,263.702 134.535,275.035 145.5,286.5C 133.833,286.5 122.167,286.5 110.5,286.5C 110.168,236.664 110.501,186.997 111.5,137.5 Z"/></g>
<g><path style="opacity:0.998" fill="#ec573d" d="M 416.5,247.5 C 443.167,273.5 469.5,299.833 495.5,326.5C 494.565,330.969 493.232,335.303 491.5,339.5C 466.5,314.833 441.5,290.167 416.5,265.5C 416.5,259.5 416.5,253.5 416.5,247.5 Z"/></g>
<g><path style="opacity:0.999" fill="#a72c77" d="M 5.5,249.5 C 91.1667,334.5 176.5,419.833 261.5,505.5C 255.5,505.5 249.5,505.5 243.5,505.5C 165.417,425.916 86.7503,346.75 7.5,268C 6.90558,267.536 6.23891,267.369 5.5,267.5C 5.5,261.5 5.5,255.5 5.5,249.5 Z"/></g>
<g><path style="opacity:0.997" fill="#ec5341" d="M 416.5,265.5 C 441.5,290.167 466.5,314.833 491.5,339.5C 488.501,349.827 484.167,359.494 478.5,368.5C 456.368,346.868 434.368,325.035 412.5,303C 411.906,302.536 411.239,302.369 410.5,302.5C 413.392,298.668 415.226,294.335 416,289.5C 416.5,281.507 416.666,273.507 416.5,265.5 Z"/></g>
<g><path style="opacity:0.997" fill="#a42a79" d="M 5.5,267.5 C 6.23891,267.369 6.90558,267.536 7.5,268C 86.7503,346.75 165.417,425.916 243.5,505.5C 239.434,505.693 235.434,505.36 231.5,504.5C 157.118,429.118 82.118,354.451 6.5,280.5C 5.62743,276.232 5.2941,271.898 5.5,267.5 Z"/></g>
<g><path style="opacity:0.996" fill="#9f297c" d="M 6.5,280.5 C 82.118,354.451 157.118,429.118 231.5,504.5C 222.549,504.175 213.883,502.842 205.5,500.5C 140.833,435.167 75.8333,370.167 10.5,305.5C 8.25139,297.442 6.91806,289.108 6.5,280.5 Z"/></g>
<g><path style="opacity:0.997" fill="#eb4d48" d="M 410.5,302.5 C 411.239,302.369 411.906,302.536 412.5,303C 434.368,325.035 456.368,346.868 478.5,368.5C 473.674,380.166 467.341,390.832 459.5,400.5C 459.631,399.761 459.464,399.094 459,398.5C 429.632,369.299 400.465,339.965 371.5,310.5C 379.684,310.826 387.684,310.492 395.5,309.5C 401.346,308.889 406.346,306.556 410.5,302.5 Z"/></g>
<g><path style="opacity:0.994" fill="#99277f" d="M 10.5,305.5 C 75.8333,370.167 140.833,435.167 205.5,500.5C 194.022,498.883 183.022,495.883 172.5,491.5C 121.833,440.167 70.8333,389.167 19.5,338.5C 15.1174,327.978 12.1174,316.978 10.5,305.5 Z"/></g>
<g><path style="opacity:1" fill="#b8316f" d="M 12.5,196.5 C 39.8333,223.5 67.1667,250.5 94.5,277.5C 94.3345,281.514 94.5012,285.514 95,289.5C 97.1026,301.104 103.936,307.77 115.5,309.5C 119.298,310.483 123.298,310.817 127.5,310.5C 146.167,329.5 164.833,348.5 183.5,367.5C 176.5,367.5 169.5,367.5 162.5,367.5C 111.784,315.784 60.451,264.784 8.5,214.5C 9.21519,208.245 10.5485,202.245 12.5,196.5 Z"/></g>
<g><path style="opacity:1" fill="#be336c" d="M 127.5,310.5 C 134.5,310.5 141.5,310.5 148.5,310.5C 161.833,324.5 175.5,338.167 189.5,351.5C 188.5,354.167 187.5,356.833 186.5,359.5C 185.957,359.56 185.624,359.893 185.5,360.5C 197.482,361.499 209.482,361.832 221.5,361.5C 222.96,363.463 224.627,365.296 226.5,367C 212.171,367.5 197.837,367.667 183.5,367.5C 164.833,348.5 146.167,329.5 127.5,310.5 Z"/></g>
<g><path style="opacity:1" fill="#c63568" d="M 148.5,310.5 C 164.17,310.333 179.837,310.5 195.5,311C 199.541,314.185 202.541,318.019 204.5,322.5C 199.767,332.3 194.767,341.967 189.5,351.5C 175.5,338.167 161.833,324.5 148.5,310.5 Z"/></g>
<g><path style="opacity:1" fill="#dc4f6c" d="M 115.5,309.5 C 208.833,309.5 302.167,309.5 395.5,309.5C 387.684,310.492 379.684,310.826 371.5,310.5C 355.833,310.5 340.167,310.5 324.5,310.5C 295.831,310.333 267.165,310.5 238.5,311C 240.373,312.704 242.04,314.537 243.5,316.5C 231.482,316.168 219.482,316.501 207.5,317.5C 206.725,319.396 205.725,321.063 204.5,322.5C 202.541,318.019 199.541,314.185 195.5,311C 179.837,310.5 164.17,310.333 148.5,310.5C 141.5,310.5 134.5,310.5 127.5,310.5C 123.298,310.817 119.298,310.483 115.5,309.5 Z"/></g>
<g><path style="opacity:0.998" fill="#e84155" d="M 324.5,310.5 C 362.5,349.167 400.833,387.5 439.5,425.5C 433.798,432.203 427.464,438.203 420.5,443.5C 399.55,424.218 379.217,404.218 359.5,383.5C 359.934,374.935 355.934,369.935 347.5,368.5C 330.005,367.668 312.338,367.168 294.5,367C 292.627,365.296 290.96,363.463 289.5,361.5C 301.518,361.832 313.518,361.499 325.5,360.5C 325.376,359.893 325.043,359.56 324.5,359.5C 318.038,345.243 311.038,331.243 303.5,317.5C 283.511,316.5 263.511,316.167 243.5,316.5C 242.04,314.537 240.373,312.704 238.5,311C 267.165,310.5 295.831,310.333 324.5,310.5 Z"/></g>
<g><path style="opacity:0.998" fill="#ea474e" d="M 324.5,310.5 C 340.167,310.5 355.833,310.5 371.5,310.5C 400.465,339.965 429.632,369.299 459,398.5C 459.464,399.094 459.631,399.761 459.5,400.5C 453.563,409.435 446.896,417.768 439.5,425.5C 400.833,387.5 362.5,349.167 324.5,310.5 Z"/></g>
<g><path style="opacity:1" fill="#fefdfd" d="M 243.5,316.5 C 263.511,316.167 283.511,316.5 303.5,317.5C 311.038,331.243 318.038,345.243 324.5,359.5C 278.5,360.833 232.5,360.833 186.5,359.5C 187.5,356.833 188.5,354.167 189.5,351.5C 194.767,341.967 199.767,332.3 204.5,322.5C 205.725,321.063 206.725,319.396 207.5,317.5C 219.482,316.501 231.482,316.168 243.5,316.5 Z"/></g>
<g><path style="opacity:0.995" fill="#942682" d="M 19.5,338.5 C 70.8333,389.167 121.833,440.167 172.5,491.5C 165.371,489.795 158.704,487.128 152.5,483.5C 111.451,441.45 69.7841,400.117 27.5,359.5C 24.046,352.805 21.3793,345.805 19.5,338.5 Z"/></g>
<g><path style="opacity:1" fill="#ecafc0" d="M 186.5,359.5 C 232.5,360.833 278.5,360.833 324.5,359.5C 325.043,359.56 325.376,359.893 325.5,360.5C 313.518,361.499 301.518,361.832 289.5,361.5C 266.833,361.5 244.167,361.5 221.5,361.5C 209.482,361.832 197.482,361.499 185.5,360.5C 185.624,359.893 185.957,359.56 186.5,359.5 Z"/></g>
<g><path style="opacity:1" fill="#d6476b" d="M 221.5,361.5 C 244.167,361.5 266.833,361.5 289.5,361.5C 290.96,363.463 292.627,365.296 294.5,367C 312.338,367.168 330.005,367.668 347.5,368.5C 285.833,368.5 224.167,368.5 162.5,368.5C 162.5,368.167 162.5,367.833 162.5,367.5C 169.5,367.5 176.5,367.5 183.5,367.5C 197.837,367.667 212.171,367.5 226.5,367C 224.627,365.296 222.96,363.463 221.5,361.5 Z"/></g>
<g><path style="opacity:1" fill="#fefefe" d="M 162.5,368.5 C 224.167,368.5 285.833,368.5 347.5,368.5C 355.934,369.935 359.934,374.935 359.5,383.5C 356.561,391.146 350.894,394.48 342.5,393.5C 335.5,393.5 328.5,393.5 321.5,393.5C 314.167,393.5 306.833,393.5 299.5,393.5C 292.5,393.5 285.5,393.5 278.5,393.5C 270.167,393.5 261.833,393.5 253.5,393.5C 246.167,393.5 238.833,393.5 231.5,393.5C 224.5,393.5 217.5,393.5 210.5,393.5C 203.5,393.5 196.5,393.5 189.5,393.5C 181.167,393.5 172.833,393.5 164.5,393.5C 156.515,392.848 152.181,388.515 151.5,380.5C 152.377,373.956 156.043,369.956 162.5,368.5 Z"/></g>
<g><path style="opacity:0.992" fill="#8f2484" d="M 27.5,359.5 C 69.7841,400.117 111.451,441.45 152.5,483.5C 95.5793,457.579 53.9127,416.246 27.5,359.5 Z"/></g>
<g><path style="opacity:0.997" fill="#e33e59" d="M 359.5,383.5 C 379.217,404.218 399.55,424.218 420.5,443.5C 415.771,448.561 410.438,452.894 404.5,456.5C 383.833,435.5 363.167,414.5 342.5,393.5C 350.894,394.48 356.561,391.146 359.5,383.5 Z"/></g>
<g><path style="opacity:0.998" fill="#b22f72" d="M 164.5,393.5 C 172.833,393.5 181.167,393.5 189.5,393.5C 224.799,429.299 260.299,464.965 296,500.5C 296.464,501.094 296.631,501.761 296.5,502.5C 290.261,503.891 283.928,504.557 277.5,504.5C 276.448,504.649 275.448,504.483 274.5,504C 237.632,467.299 200.965,430.465 164.5,393.5 Z"/></g>
<g><path style="opacity:0.999" fill="#b8316f" d="M 189.5,393.5 C 196.5,393.5 203.5,393.5 210.5,393.5C 245.167,428.5 279.833,463.5 314.5,498.5C 308.755,500.451 302.755,501.785 296.5,502.5C 296.631,501.761 296.464,501.094 296,500.5C 260.299,464.965 224.799,429.299 189.5,393.5 Z"/></g>
<g><path style="opacity:0.997" fill="#be326c" d="M 210.5,393.5 C 217.5,393.5 224.5,393.5 231.5,393.5C 264.833,427.167 298.167,460.833 331.5,494.5C 325.95,496.304 320.283,497.638 314.5,498.5C 279.833,463.5 245.167,428.5 210.5,393.5 Z"/></g>
<g><path style="opacity:0.997" fill="#c43469" d="M 231.5,393.5 C 238.833,393.5 246.167,393.5 253.5,393.5C 284.833,425.167 316.167,456.833 347.5,488.5C 342.244,490.697 336.911,492.697 331.5,494.5C 298.167,460.833 264.833,427.167 231.5,393.5 Z"/></g>
<g><path style="opacity:0.997" fill="#cb3666" d="M 253.5,393.5 C 261.833,393.5 270.167,393.5 278.5,393.5C 307.167,422.5 335.833,451.5 364.5,480.5C 359.265,483.949 353.598,486.616 347.5,488.5C 316.167,456.833 284.833,425.167 253.5,393.5 Z"/></g>
<g><path style="opacity:0.999" fill="#d13862" d="M 278.5,393.5 C 285.5,393.5 292.5,393.5 299.5,393.5C 325.833,420.167 352.167,446.833 378.5,473.5C 374.151,476.341 369.484,478.674 364.5,480.5C 335.833,451.5 307.167,422.5 278.5,393.5 Z"/></g>
<g><path style="opacity:0.997" fill="#d73a5f" d="M 299.5,393.5 C 306.833,393.5 314.167,393.5 321.5,393.5C 344.798,417.299 368.298,440.965 392,464.5C 392.671,463.748 393.504,463.414 394.5,463.5C 389.539,467.32 384.206,470.653 378.5,473.5C 352.167,446.833 325.833,420.167 299.5,393.5 Z"/></g>
<g><path style="opacity:0.997" fill="#dd3c5c" d="M 321.5,393.5 C 328.5,393.5 335.5,393.5 342.5,393.5C 363.167,414.5 383.833,435.5 404.5,456.5C 401.525,459.323 398.192,461.656 394.5,463.5C 393.504,463.414 392.671,463.748 392,464.5C 368.298,440.965 344.798,417.299 321.5,393.5 Z"/></g>
</svg>
